<svg width="17" height="17" viewBox="0 0 17 17" fill="none" xmlns="http://www.w3.org/2000/svg">
<g clip-path="url(#clip0_42_2127)">
<path d="M13.4583 4.25002H9.20833C8.56149 4.25239 7.92772 4.43232 7.37613 4.7702C6.82455 5.10807 6.37632 5.59091 6.08033 6.16606C5.65561 5.84362 5.13741 5.66832 4.60417 5.66669C3.94665 5.66669 3.31607 5.92788 2.85113 6.39282C2.3862 6.85775 2.125 7.48834 2.125 8.14585C2.12707 8.51419 2.21205 8.87734 2.37363 9.20835H1.41667V2.12502C1.41667 1.93716 1.34204 1.75699 1.2092 1.62415C1.07636 1.49131 0.896195 1.41669 0.708333 1.41669C0.520472 1.41669 0.340304 1.49131 0.207466 1.62415C0.0746278 1.75699 0 1.93716 0 2.12502L0 14.875C0 15.0629 0.0746278 15.2431 0.207466 15.3759C0.340304 15.5087 0.520472 15.5834 0.708333 15.5834C0.896195 15.5834 1.07636 15.5087 1.2092 15.3759C1.34204 15.2431 1.41667 15.0629 1.41667 14.875V13.4584H15.5833V14.875C15.5833 15.0629 15.658 15.2431 15.7908 15.3759C15.9236 15.5087 16.1038 15.5834 16.2917 15.5834C16.4795 15.5834 16.6597 15.5087 16.7925 15.3759C16.9254 15.2431 17 15.0629 17 14.875V7.79169C16.9989 6.85272 16.6254 5.95254 15.9614 5.28859C15.2975 4.62465 14.3973 4.25115 13.4583 4.25002ZM7.08333 7.79169C7.08333 7.2281 7.30722 6.6876 7.70573 6.28908C8.10425 5.89057 8.64475 5.66669 9.20833 5.66669H13.4583C14.0219 5.66669 14.5624 5.89057 14.9609 6.28908C15.3595 6.6876 15.5833 7.2281 15.5833 7.79169V9.20835H7.08333V7.79169ZM3.54167 8.14585C3.54167 7.93571 3.60398 7.73029 3.72073 7.55556C3.83748 7.38083 4.00342 7.24465 4.19757 7.16423C4.39171 7.08381 4.60535 7.06277 4.81145 7.10377C5.01755 7.14477 5.20687 7.24596 5.35547 7.39455C5.50406 7.54315 5.60525 7.73247 5.64625 7.93857C5.68725 8.14468 5.66621 8.35831 5.58579 8.55246C5.50537 8.7466 5.36919 8.91254 5.19446 9.02929C5.01973 9.14604 4.81431 9.20835 4.60417 9.20835C4.32237 9.20835 4.05212 9.09641 3.85287 8.89716C3.65361 8.6979 3.54167 8.42765 3.54167 8.14585ZM1.41667 12.0417V10.625H15.5833V12.0417H1.41667Z" fill="#7C3EFF"/>
</g>
<defs>
<clipPath id="clip0_42_2127">
<rect width="17" height="17" fill="white"/>
</clipPath>
</defs>
</svg>
