<svg width="13" height="13" viewBox="0 0 13 13" fill="none" xmlns="http://www.w3.org/2000/svg">
<g clip-path="url(#clip0_42_2128)">
<path d="M3.95034 1.13256L2.92497 2.15848L0.924591 0.158644C0.822432 0.0599751 0.685605 0.00537813 0.543582 0.00661227C0.401559 0.00784642 0.265702 0.0648129 0.165273 0.165242C0.0648434 0.265672 0.00787693 0.401528 0.00664279 0.543552C0.00540865 0.685575 0.0600056 0.822401 0.158675 0.924561L2.15851 2.92494L1.13259 3.95031C1.0568 4.02613 1.0052 4.12273 0.984347 4.22789C0.96349 4.33305 0.974308 4.44203 1.01543 4.54104C1.05655 4.64005 1.12613 4.72463 1.21535 4.78406C1.30457 4.8435 1.40943 4.87513 1.51663 4.87494H4.09713C4.30343 4.87494 4.50127 4.79299 4.64714 4.64711C4.79302 4.50124 4.87497 4.3034 4.87497 4.0971V1.5166C4.87516 1.4094 4.84353 1.30454 4.78409 1.21532C4.72466 1.1261 4.64008 1.05652 4.54107 1.0154C4.44206 0.974278 4.33308 0.96346 4.22792 0.984316C4.12276 1.00517 4.02616 1.05677 3.95034 1.13256Z" fill="#7C3EFF"/>
<path d="M10.8415 10.075L11.8674 9.04908C11.943 8.97324 11.9944 8.87668 12.0152 8.77161C12.0359 8.66655 12.0251 8.55769 11.984 8.45879C11.9429 8.3599 11.8734 8.2754 11.7843 8.21599C11.6951 8.15658 11.5904 8.12492 11.4833 8.125H8.90283C8.69654 8.125 8.49869 8.20695 8.35282 8.35282C8.20695 8.49869 8.125 8.69654 8.125 8.90283V11.4833C8.12492 11.5905 8.15662 11.6953 8.2161 11.7844C8.27558 11.8735 8.36016 11.943 8.45915 11.9841C8.55813 12.0252 8.66707 12.0359 8.77218 12.0151C8.87728 11.9942 8.97384 11.9426 9.04963 11.8668L10.075 10.8415L12.0748 12.8413C12.177 12.94 12.3138 12.9946 12.4558 12.9933C12.5979 12.9921 12.7337 12.9351 12.8342 12.8347C12.9346 12.7343 12.9915 12.5984 12.9928 12.4564C12.994 12.3144 12.9394 12.1775 12.8407 12.0754L10.8415 10.075Z" fill="#7C3EFF"/>
<path d="M8.9028 4.87502H11.4833C11.5905 4.87511 11.6952 4.8434 11.7844 4.78392C11.8735 4.72444 11.943 4.63986 11.9841 4.54088C12.0251 4.44189 12.0359 4.33295 12.015 4.22785C11.9941 4.12274 11.9426 4.02618 11.8668 3.9504L10.8414 2.92502L12.8412 0.925189C12.9429 0.823622 13 0.685839 13.0001 0.542151C13.0001 0.398463 12.9431 0.26064 12.8415 0.159001C12.74 0.0573625 12.6022 0.000233932 12.4585 0.000183139C12.3148 0.000132347 12.177 0.0571635 12.0753 0.15873L10.075 2.15856L9.04959 1.13265C8.97377 1.05685 8.87717 1.00526 8.77201 0.984403C8.66685 0.963546 8.55787 0.974364 8.45886 1.01549C8.35986 1.05661 8.27528 1.12619 8.21584 1.21541C8.1564 1.30463 8.12478 1.40948 8.12497 1.51669V4.09719C8.12497 4.30348 8.20692 4.50133 8.35279 4.6472C8.49866 4.79307 8.69651 4.87502 8.9028 4.87502Z" fill="#7C3EFF"/>
<path d="M4.0972 8.125H1.5167C1.40954 8.12492 1.30476 8.15662 1.21562 8.2161C1.12648 8.27558 1.05699 8.36016 1.01594 8.45914C0.974882 8.55813 0.964109 8.66707 0.984983 8.77217C1.00586 8.87728 1.05744 8.97384 1.1332 9.04962L2.15858 10.075L0.158742 12.0754C0.107007 12.1253 0.0657421 12.1851 0.0373539 12.2512C0.00896567 12.3173 -0.00597688 12.3883 -0.00660186 12.4603C-0.00722685 12.5322 0.00647825 12.6035 0.0337137 12.6701C0.0609492 12.7367 0.10117 12.7971 0.152028 12.848C0.202887 12.8988 0.263365 12.9391 0.329934 12.9663C0.396503 12.9935 0.467829 13.0072 0.539751 13.0066C0.611673 13.006 0.682751 12.9911 0.748836 12.9627C0.814922 12.9343 0.874692 12.893 0.924659 12.8413L2.92503 10.8414L3.95095 11.8674C4.0268 11.943 4.12335 11.9944 4.22842 12.0152C4.33349 12.0359 4.44235 12.025 4.54124 11.9839C4.64014 11.9428 4.72463 11.8733 4.78404 11.7842C4.84345 11.6951 4.87512 11.5904 4.87503 11.4833V8.90283C4.87503 8.69654 4.79308 8.49869 4.64721 8.35282C4.50134 8.20695 4.30349 8.125 4.0972 8.125Z" fill="#7C3EFF"/>
</g>
<defs>
<clipPath id="clip0_42_2128">
<rect width="13" height="13" fill="white"/>
</clipPath>
</defs>
</svg>
