<svg width="35" height="35" viewBox="0 0 35 35" fill="none" xmlns="http://www.w3.org/2000/svg">
<g clip-path="url(#clip0_92_1442)">
<path d="M27.7083 1.45801H7.29167C5.35851 1.46032 3.50519 2.22929 2.13824 3.59625C0.771286 4.9632 0.00231563 6.81652 0 8.74968L0 26.2497C0.00231563 28.1828 0.771286 30.0362 2.13824 31.4031C3.50519 32.7701 5.35851 33.539 7.29167 33.5413H27.7083C29.6415 33.539 31.4948 32.7701 32.8618 31.4031C34.2287 30.0362 34.9977 28.1828 35 26.2497V8.74968C34.9977 6.81652 34.2287 4.9632 32.8618 3.59625C31.4948 2.22929 29.6415 1.46032 27.7083 1.45801ZM7.29167 4.37467H27.7083C28.5816 4.37639 29.4343 4.63938 30.1568 5.12981C30.8793 5.62023 31.4385 6.31564 31.7625 7.12655L20.5946 18.2959C19.7727 19.1145 18.66 19.5741 17.5 19.5741C16.34 19.5741 15.2273 19.1145 14.4054 18.2959L3.2375 7.12655C3.56147 6.31564 4.12069 5.62023 4.84319 5.12981C5.5657 4.63938 6.41844 4.37639 7.29167 4.37467ZM27.7083 30.6247H7.29167C6.13134 30.6247 5.01855 30.1637 4.19807 29.3433C3.3776 28.5228 2.91667 27.41 2.91667 26.2497V10.9372L12.3433 20.358C13.7122 21.7234 15.5666 22.4901 17.5 22.4901C19.4334 22.4901 21.2878 21.7234 22.6567 20.358L32.0833 10.9372V26.2497C32.0833 27.41 31.6224 28.5228 30.8019 29.3433C29.9815 30.1637 28.8687 30.6247 27.7083 30.6247Z" fill="#7C3EFF"/>
</g>
<defs>
<clipPath id="clip0_92_1442">
<rect width="35" height="35" fill="white"/>
</clipPath>
</defs>
</svg>
