<svg width="59" height="59" viewBox="0 0 59 59" fill="none" xmlns="http://www.w3.org/2000/svg">
<g clip-path="url(#clip0_92_1630)">
<path d="M56.8396 22.2943L38.1932 3.64541C35.8854 1.34438 32.7594 0.0522461 29.5005 0.0522461C26.2416 0.0522461 23.1156 1.34438 20.8079 3.64541L2.16139 22.2943C1.47411 22.9772 0.929202 23.7897 0.558271 24.6848C0.187339 25.5798 -0.00224145 26.5396 0.000517977 27.5084V51.6419C0.000517977 53.5979 0.777525 55.4737 2.16061 56.8568C3.54369 58.2399 5.41955 59.0169 7.37552 59.0169H51.6255C53.5815 59.0169 55.4574 58.2399 56.8404 56.8568C58.2235 55.4737 59.0005 53.5979 59.0005 51.6419V27.5084C59.0033 26.5396 58.8137 25.5798 58.4428 24.6848C58.0718 23.7897 57.5269 22.9772 56.8396 22.2943ZM36.8755 54.1002H22.1255V44.4292C22.1255 42.4732 22.9025 40.5973 24.2856 39.2142C25.6687 37.8312 27.5445 37.0542 29.5005 37.0542C31.4565 37.0542 33.3324 37.8312 34.7154 39.2142C36.0985 40.5973 36.8755 42.4732 36.8755 44.4292V54.1002ZM54.0839 51.6419C54.0839 52.2939 53.8249 52.9192 53.3638 53.3802C52.9028 53.8412 52.2775 54.1002 51.6255 54.1002H41.7922V44.4292C41.7922 41.1692 40.4972 38.0428 38.192 35.7376C35.8869 33.4325 32.7605 32.1375 29.5005 32.1375C26.2406 32.1375 23.1141 33.4325 20.809 35.7376C18.5039 38.0428 17.2089 41.1692 17.2089 44.4292V54.1002H7.37552C6.72353 54.1002 6.09824 53.8412 5.63721 53.3802C5.17619 52.9192 4.91719 52.2939 4.91719 51.6419V27.5084C4.91946 26.8569 5.17823 26.2325 5.63748 25.7704L24.2839 7.12887C25.6697 5.74957 27.5453 4.97523 29.5005 4.97523C31.4557 4.97523 33.3313 5.74957 34.7171 7.12887L53.3636 25.7778C53.821 26.2381 54.0796 26.8595 54.0839 27.5084V51.6419Z" fill="white"/>
</g>
<defs>
<clipPath id="clip0_92_1630">
<rect width="59" height="59" fill="white"/>
</clipPath>
</defs>
</svg>
