<svg width="70" height="70" viewBox="0 0 70 70" fill="none" xmlns="http://www.w3.org/2000/svg">
<g clip-path="url(#clip0_82_471)">
<path d="M26.1479 70H11.6667C8.57247 70 5.60501 68.7708 3.41709 66.5829C1.22916 64.395 0 61.4275 0 58.3333V43.75C0 40.6558 1.22916 37.6883 3.41709 35.5004C5.60501 33.3125 8.57247 32.0833 11.6667 32.0833H37.4996C39.0781 32.0841 40.6297 32.4923 42.0042 33.2684C43.3787 34.0446 44.5296 35.1624 45.3454 36.5138L54.7283 26.2033C55.5044 25.3499 56.4411 24.6578 57.4849 24.1665C58.5286 23.6753 59.6589 23.3945 60.8112 23.3404C61.9635 23.2862 63.1152 23.4596 64.2004 23.8508C65.2856 24.2419 66.2831 24.8431 67.1358 25.62C68.8373 27.1831 69.857 29.3518 69.9754 31.6593C70.0938 33.9668 69.3013 36.2285 67.7687 37.9575L47.9354 60.2321C45.197 63.3034 41.8404 65.7613 38.0856 67.4446C34.3309 69.128 30.2628 69.9988 26.1479 70ZM11.6667 37.9167C10.1196 37.9167 8.63584 38.5312 7.54188 39.6252C6.44791 40.7192 5.83333 42.2029 5.83333 43.75V58.3333C5.83333 59.8804 6.44791 61.3642 7.54188 62.4581C8.63584 63.5521 10.1196 64.1667 11.6667 64.1667H26.1479C29.4377 64.1654 32.69 63.4688 35.6918 62.1228C38.6936 60.7767 41.377 58.8114 43.5662 56.3558L63.4142 34.0783C63.9295 33.4979 64.1962 32.7383 64.1569 31.9631C64.1177 31.1879 63.7755 30.4591 63.2042 29.9338C62.6232 29.4114 61.8615 29.1363 61.0808 29.1667C60.6938 29.183 60.314 29.2763 59.9635 29.4411C59.6129 29.6058 59.2987 29.8388 59.0392 30.1263L46.13 44.3333C45.5632 45.9018 44.5813 47.287 43.2889 48.3411C41.9964 49.3952 40.4421 50.0785 38.7917 50.3183L23.7387 52.4708C22.9729 52.5807 22.1949 52.3818 21.5757 51.918C20.9565 51.4541 20.5469 50.7633 20.4371 49.9975C20.3272 49.2317 20.5261 48.4536 20.99 47.8344C21.4538 47.2152 22.1446 46.8057 22.9104 46.6958L37.9662 44.5462C38.802 44.4294 39.5622 43.9997 40.0934 43.344C40.6245 42.6883 40.887 41.8554 40.8277 41.0136C40.7684 40.1718 40.3919 39.3839 39.7741 38.8091C39.1564 38.2342 38.3434 37.9153 37.4996 37.9167H11.6667ZM32.0833 26.4658C30.7614 26.4694 29.478 26.0207 28.4462 25.1942C23.4529 21.1867 17.5 15.1667 17.5 9.33333C17.4284 6.9369 18.3087 4.60963 19.9485 2.86056C21.5882 1.11149 23.8539 0.0829856 26.25 0C28.4297 0.0084899 30.5211 0.862801 32.0833 2.38292C33.6456 0.862801 35.7369 0.0084899 37.9167 0C40.3127 0.0829856 42.5784 1.11149 44.2182 2.86056C45.8579 4.60963 46.7383 6.9369 46.6667 9.33333C46.6667 15.1667 40.7137 21.1867 35.7175 25.1971C34.6862 26.0219 33.4039 26.4696 32.0833 26.4658ZM26.25 5.83333C25.4023 5.91839 24.6218 6.33272 24.0763 6.98724C23.5309 7.64175 23.2641 8.48417 23.3333 9.33333C23.3333 11.9583 26.6904 16.3042 32.1008 20.6471C37.4762 16.3042 40.8333 11.9583 40.8333 9.33333C40.9025 8.48417 40.6357 7.64175 40.0903 6.98724C39.5449 6.33272 38.7644 5.91839 37.9167 5.83333C37.0689 5.91839 36.2884 6.33272 35.743 6.98724C35.1976 7.64175 34.9308 8.48417 35 9.33333C35 10.1069 34.6927 10.8487 34.1457 11.3957C33.5987 11.9427 32.8569 12.25 32.0833 12.25C31.3098 12.25 30.5679 11.9427 30.0209 11.3957C29.474 10.8487 29.1667 10.1069 29.1667 9.33333C29.2359 8.48417 28.9691 7.64175 28.4236 6.98724C27.8782 6.33272 27.0977 5.91839 26.25 5.83333Z" fill="#7C3EFF"/>
</g>
<defs>
<clipPath id="clip0_82_471">
<rect width="70" height="70" fill="white"/>
</clipPath>
</defs>
</svg>
