<svg width="70" height="70" viewBox="0 0 70 70" fill="none" xmlns="http://www.w3.org/2000/svg">
<g clip-path="url(#clip0_97_2240)">
<path d="M55.4167 17.5014H41.7696C40.607 16.6728 39.3005 16.0675 37.9167 15.7164V14.5847L48.2125 9.76642C48.6346 9.50484 48.9829 9.13984 49.2244 8.70599C49.4659 8.27214 49.5927 7.7838 49.5927 7.28725C49.5927 6.79069 49.4659 6.30236 49.2244 5.86851C48.9829 5.43466 48.6346 5.06966 48.2125 4.80808L38.8792 0.433082C38.1504 0.0925664 37.3475 -0.0583285 36.5449 -0.00559689C35.7423 0.0471347 34.966 0.301784 34.2881 0.734713C33.6102 1.16764 33.0526 1.76482 32.6672 2.47081C32.2817 3.17681 32.0809 3.96873 32.0833 4.77308V15.7164C30.7002 16.0671 29.3946 16.6724 28.2333 17.5014H14.5833C10.717 17.506 7.01038 19.044 4.27647 21.7779C1.54257 24.5118 0.00463125 28.2184 0 32.0848L0 61.2514C0 63.5721 0.921872 65.7977 2.56282 67.4386C4.20376 69.0795 6.42936 70.0014 8.75 70.0014H61.25C63.5706 70.0014 65.7962 69.0795 67.4372 67.4386C69.0781 65.7977 70 63.5721 70 61.2514V32.0848C69.9954 28.2184 68.4574 24.5118 65.7235 21.7779C62.9896 19.044 59.283 17.506 55.4167 17.5014ZM63.63 29.1681H57.3329C55.0135 29.1622 52.7903 28.2408 51.1467 26.6043L47.8742 23.3347H55.4167C57.2199 23.3422 58.9768 23.9067 60.447 24.9508C61.9172 25.995 63.0289 27.4679 63.63 29.1681ZM14.5833 23.3347H22.1258L18.8533 26.6043C17.2097 28.2408 14.9865 29.1622 12.6671 29.1681H6.37C6.97108 27.4679 8.08276 25.995 9.55296 24.9508C11.0232 23.9067 12.7801 23.3422 14.5833 23.3347ZM37.9167 64.1681H32.0833V55.4181C32.0833 54.6445 32.3906 53.9027 32.9376 53.3557C33.4846 52.8087 34.2265 52.5014 35 52.5014C35.7735 52.5014 36.5154 52.8087 37.0624 53.3557C37.6094 53.9027 37.9167 54.6445 37.9167 55.4181V64.1681ZM61.25 64.1681H43.75V55.4181C43.75 53.0974 42.8281 50.8718 41.1872 49.2309C39.5462 47.59 37.3206 46.6681 35 46.6681C32.6794 46.6681 30.4538 47.59 28.8128 49.2309C27.1719 50.8718 26.25 53.0974 26.25 55.4181V64.1681H8.75C7.97645 64.1681 7.23459 63.8608 6.68761 63.3138C6.14062 62.7668 5.83333 62.025 5.83333 61.2514V35.0014H12.6671C14.5828 35.0061 16.4804 34.6309 18.2502 33.8975C20.02 33.164 21.6267 32.0869 22.9775 30.7285L30.8758 22.8331C31.9697 21.7395 33.4532 21.1252 35 21.1252C36.5468 21.1252 38.0303 21.7395 39.1242 22.8331L47.0225 30.7285C48.3733 32.0869 49.98 33.164 51.7498 33.8975C53.5196 34.6309 55.4172 35.0061 57.3329 35.0014H64.1667V61.2514C64.1667 62.025 63.8594 62.7668 63.3124 63.3138C62.7654 63.8608 62.0235 64.1681 61.25 64.1681ZM20.4167 43.7514C20.4167 44.525 20.1094 45.2668 19.5624 45.8138C19.0154 46.3608 18.2735 46.6681 17.5 46.6681H14.5833C13.8098 46.6681 13.0679 46.3608 12.5209 45.8138C11.974 45.2668 11.6667 44.525 11.6667 43.7514C11.6667 42.9779 11.974 42.236 12.5209 41.689C13.0679 41.142 13.8098 40.8348 14.5833 40.8348H17.5C18.2735 40.8348 19.0154 41.142 19.5624 41.689C20.1094 42.236 20.4167 42.9779 20.4167 43.7514ZM20.4167 55.4181C20.4167 56.1916 20.1094 56.9335 19.5624 57.4805C19.0154 58.0275 18.2735 58.3348 17.5 58.3348H14.5833C13.8098 58.3348 13.0679 58.0275 12.5209 57.4805C11.974 56.9335 11.6667 56.1916 11.6667 55.4181C11.6667 54.6445 11.974 53.9027 12.5209 53.3557C13.0679 52.8087 13.8098 52.5014 14.5833 52.5014H17.5C18.2735 52.5014 19.0154 52.8087 19.5624 53.3557C20.1094 53.9027 20.4167 54.6445 20.4167 55.4181ZM58.3333 43.7514C58.3333 44.525 58.026 45.2668 57.4791 45.8138C56.9321 46.3608 56.1902 46.6681 55.4167 46.6681H52.5C51.7265 46.6681 50.9846 46.3608 50.4376 45.8138C49.8906 45.2668 49.5833 44.525 49.5833 43.7514C49.5833 42.9779 49.8906 42.236 50.4376 41.689C50.9846 41.142 51.7265 40.8348 52.5 40.8348H55.4167C56.1902 40.8348 56.9321 41.142 57.4791 41.689C58.026 42.236 58.3333 42.9779 58.3333 43.7514ZM58.3333 55.4181C58.3333 56.1916 58.026 56.9335 57.4791 57.4805C56.9321 58.0275 56.1902 58.3348 55.4167 58.3348H52.5C51.7265 58.3348 50.9846 58.0275 50.4376 57.4805C49.8906 56.9335 49.5833 56.1916 49.5833 55.4181C49.5833 54.6445 49.8906 53.9027 50.4376 53.3557C50.9846 52.8087 51.7265 52.5014 52.5 52.5014H55.4167C56.1902 52.5014 56.9321 52.8087 57.4791 53.3557C58.026 53.9027 58.3333 54.6445 58.3333 55.4181ZM40.8333 35.0014C40.8333 36.1551 40.4912 37.283 39.8502 38.2422C39.2093 39.2015 38.2982 39.9492 37.2323 40.3907C36.1664 40.8322 34.9935 40.9477 33.862 40.7227C32.7304 40.4976 31.691 39.942 30.8752 39.1262C30.0594 38.3104 29.5038 37.271 29.2788 36.1394C29.0537 35.0079 29.1692 33.835 29.6107 32.7691C30.0522 31.7032 30.7999 30.7922 31.7592 30.1512C32.7185 29.5102 33.8463 29.1681 35 29.1681C36.5471 29.1681 38.0308 29.7827 39.1248 30.8766C40.2188 31.9706 40.8333 33.4543 40.8333 35.0014Z" fill="#7C3EFF"/>
</g>
<defs>
<clipPath id="clip0_97_2240">
<rect width="70" height="70" fill="white"/>
</clipPath>
</defs>
</svg>
