<svg width="70" height="70" viewBox="0 0 70 70" fill="none" xmlns="http://www.w3.org/2000/svg">
<g clip-path="url(#clip0_82_463)">
<path d="M52.5 20.4155C52.5 20.9924 52.3289 21.5563 52.0085 22.0359C51.688 22.5156 51.2324 22.8894 50.6995 23.1102C50.1665 23.3309 49.5801 23.3887 49.0143 23.2762C48.4485 23.1636 47.9288 22.8858 47.5209 22.4779C47.113 22.07 46.8352 21.5503 46.7227 20.9845C46.6102 20.4188 46.6679 19.8323 46.8887 19.2994C47.1094 18.7664 47.4833 18.3109 47.9629 17.9904C48.4426 17.6699 49.0065 17.4989 49.5833 17.4989C50.3569 17.4989 51.0987 17.8062 51.6457 18.3531C52.1927 18.9001 52.5 19.642 52.5 20.4155ZM40.8333 26.2489C40.2565 26.2489 39.6926 26.4199 39.2129 26.7404C38.7333 27.0609 38.3594 27.5164 38.1387 28.0494C37.9179 28.5823 37.8602 29.1688 37.9727 29.7345C38.0852 30.3003 38.363 30.82 38.7709 31.2279C39.1788 31.6358 39.6985 31.9136 40.2643 32.0262C40.8301 32.1387 41.4165 32.0809 41.9495 31.8602C42.4824 31.6394 42.938 31.2656 43.2584 30.7859C43.5789 30.3063 43.75 29.7424 43.75 29.1655C43.75 28.392 43.4427 27.6501 42.8957 27.1031C42.3487 26.5562 41.6069 26.2489 40.8333 26.2489ZM32.0833 34.9989C31.5065 34.9989 30.9426 35.1699 30.4629 35.4904C29.9833 35.8109 29.6094 36.2664 29.3887 36.7994C29.1679 37.3323 29.1102 37.9188 29.2227 38.4845C29.3352 39.0503 29.613 39.57 30.0209 39.9779C30.4288 40.3858 30.9485 40.6636 31.5143 40.7762C32.0801 40.8887 32.6665 40.8309 33.1995 40.6102C33.7324 40.3894 34.188 40.0156 34.5084 39.5359C34.8289 39.0563 35 38.4924 35 37.9155C35 37.142 34.6927 36.4001 34.1457 35.8531C33.5987 35.3062 32.8569 34.9989 32.0833 34.9989ZM69.6092 8.62636L69.3904 9.24178C65.0096 21.3984 60.8067 32.9572 52.5 43.2239V43.7489C52.4949 48.2163 51.5585 52.6337 49.7506 56.719C47.9427 60.8043 45.303 64.4679 42 67.4759C40.2515 69.0891 37.9623 69.9892 35.5833 69.9989C33.1073 69.9911 30.7352 69.0029 28.986 67.2505C27.2368 65.498 26.2531 63.1241 26.25 60.648V57.2909C24.0978 56.5968 22.1386 55.407 20.5304 53.8172L20.4167 53.7064L13.7287 60.3943C13.1787 60.9256 12.4419 61.2196 11.6772 61.2129C10.9124 61.2063 10.1809 60.8995 9.64011 60.3587C9.09934 59.818 8.7926 59.0864 8.78595 58.3217C8.7793 57.557 9.07329 56.8202 9.60458 56.2701L16.2925 49.5822L16.1787 49.4714C14.5879 47.8613 13.3954 45.9016 12.6962 43.7489H9.80875C7.20852 43.7465 4.71542 42.7128 2.8765 40.8744C1.03759 39.0361 0.00308896 36.5433 0 33.943C0.00515922 31.4035 0.984384 28.9628 2.73583 27.1239C5.78521 23.9921 9.44647 21.5215 13.4918 19.8656C17.5371 18.2097 21.8799 17.4041 26.25 17.4989H26.775C37.0417 9.19512 48.5917 4.9922 60.7425 0.614282L61.3725 0.389699C62.5222 -0.0329811 63.7689 -0.117727 64.9653 0.145473C66.1617 0.408673 67.2577 1.00882 68.1239 1.875C68.99 2.74119 69.5902 3.83721 69.8534 5.03357C70.1166 6.22993 70.0318 7.47663 69.6092 8.62636ZM9.80875 37.9155H11.9583C12.1774 35.3457 13.0742 32.8799 14.5571 30.7697C16.1847 28.4279 17.9464 26.1822 19.8333 24.0439C14.9407 25.0566 10.4678 27.5228 7 31.1197C6.26226 31.8756 5.84439 32.8868 5.83333 33.943C5.83488 34.9966 6.2543 36.0066 6.99959 36.7513C7.74487 37.4961 8.75515 37.9148 9.80875 37.9155ZM45.7917 50.3172C43.6996 52.1485 41.5068 53.8613 39.2233 55.4476C37.1114 56.9161 34.6475 57.7978 32.0833 58.0026V60.648C32.0849 61.581 32.4564 62.4752 33.1163 63.1346C33.7763 63.794 34.6708 64.1648 35.6037 64.1655C36.5286 64.1519 37.415 63.793 38.0887 63.1593C41.8488 59.7173 44.5254 55.255 45.7917 50.3172ZM63.9829 6.01595C63.9052 5.9295 63.8024 5.86952 63.6889 5.84442C63.5754 5.81931 63.4569 5.83034 63.35 5.87595L62.7229 6.10345C48.5946 11.193 36.3942 15.5914 25.8883 26.0943C23.4784 28.5795 21.2849 31.2657 19.3317 34.1239C18.1436 35.8102 17.5895 37.862 17.7672 39.9172C17.9449 41.9723 18.843 43.8986 20.3029 45.3559L24.6546 49.7018C26.1112 51.1606 28.0362 52.0583 30.09 52.2365C32.1439 52.4148 34.1947 51.8621 35.8808 50.6759C38.7374 48.723 41.4217 46.5295 43.9046 44.1193C54.4046 33.6193 58.8087 21.4072 63.9012 7.27303L64.1229 6.65762C64.1701 6.54954 64.182 6.42933 64.1569 6.3141C64.1317 6.19888 64.0708 6.09454 63.9829 6.01595Z" fill="#7C3EFF"/>
</g>
<defs>
<clipPath id="clip0_82_463">
<rect width="70" height="70" fill="white"/>
</clipPath>
</defs>
</svg>
