<svg width="35" height="35" viewBox="0 0 35 35" fill="none" xmlns="http://www.w3.org/2000/svg">
<path d="M17.5 17.5C18.6538 17.5 19.7816 17.1579 20.7409 16.5169C21.7001 15.8759 22.4478 14.9649 22.8893 13.899C23.3308 12.8331 23.4464 11.6602 23.2213 10.5286C22.9962 9.39708 22.4406 8.35768 21.6248 7.54187C20.809 6.72607 19.7696 6.1705 18.6381 5.94542C17.5065 5.72034 16.3336 5.83586 15.2677 6.27737C14.2018 6.71888 13.2908 7.46655 12.6498 8.42584C12.0088 9.38512 11.6667 10.5129 11.6667 11.6667C11.6667 13.2138 12.2813 14.6975 13.3753 15.7915C14.4692 16.8854 15.9529 17.5 17.5 17.5ZM17.5 8.75C18.0769 8.75 18.6408 8.92106 19.1204 9.24154C19.6001 9.56203 19.9739 10.0176 20.1947 10.5505C20.4154 11.0835 20.4732 11.6699 20.3607 12.2357C20.2481 12.8015 19.9703 13.3212 19.5624 13.7291C19.1545 14.137 18.6348 14.4147 18.0691 14.5273C17.5033 14.6398 16.9168 14.5821 16.3839 14.3613C15.8509 14.1406 15.3954 13.7667 15.0749 13.2871C14.7544 12.8074 14.5834 12.2435 14.5834 11.6667C14.5834 10.8931 14.8907 10.1512 15.4377 9.60427C15.9846 9.05729 16.7265 8.75 17.5 8.75ZM30.1292 13.354L29.0806 13.0054C29.2693 11.372 29.1106 9.71709 28.6149 8.14929C28.1191 6.58149 27.2976 5.13619 26.2041 3.90817C25.1106 2.68015 23.7699 1.69715 22.2698 1.02362C20.7698 0.350098 19.1443 0.00126508 17.5 0C15.8343 0.00064308 14.188 0.358304 12.6721 1.04888C11.1562 1.73946 9.80599 2.74692 8.71232 4.00338C7.61866 5.25984 6.807 6.73611 6.33202 8.33272C5.85704 9.92934 5.72978 11.6092 5.95882 13.2592C4.56324 13.5194 3.27276 14.1778 2.24299 15.155C1.53012 15.8327 0.96341 16.6491 0.577694 17.554C0.191979 18.4589 -0.004587 19.433 8.12392e-05 20.4167V26.3594C0.00314606 27.9363 0.516027 29.47 1.46219 30.7315C2.40835 31.9931 3.73707 32.9149 5.25007 33.3594L9.43548 34.6719C10.1385 34.8907 10.8707 35.0013 11.6069 35C12.2748 34.9991 12.9395 34.9079 13.583 34.7287L22.0121 32.235C22.763 32.03 23.5551 32.03 24.3061 32.235L27.7871 33.4017C28.645 33.6105 29.5392 33.6218 30.4021 33.4348C31.2651 33.2478 32.0743 32.8673 32.7688 32.3221C33.4633 31.7768 34.025 31.081 34.4115 30.2871C34.798 29.4932 34.9992 28.6219 35 27.739V20.23C34.9967 18.7212 34.5268 17.2504 33.6548 16.0191C32.7828 14.7879 31.5513 13.8564 30.1292 13.3525V13.354ZM11.3138 5.48625C12.125 4.67175 13.0891 4.02547 14.1507 3.58448C15.2123 3.1435 16.3505 2.91649 17.5 2.91649C18.6496 2.91649 19.7878 3.1435 20.8494 3.58448C21.911 4.02547 22.8751 4.67175 23.6863 5.48625C25.3228 7.13291 26.2426 9.35931 26.2456 11.6809C26.2486 14.0024 25.3345 16.2312 23.7023 17.8821L18.5209 22.9206C18.2504 23.1858 17.8868 23.3343 17.5081 23.3343C17.1293 23.3343 16.7657 23.1858 16.4953 22.9206L11.3138 17.904C9.67387 16.2537 8.75343 14.0216 8.75343 11.6951C8.75343 9.36856 9.67387 7.13651 11.3138 5.48625ZM32.0833 27.739C32.0842 28.1806 31.9843 28.6167 31.7913 29.014C31.5982 29.4113 31.317 29.7592 30.9692 30.0315C30.6405 30.2957 30.2576 30.4843 29.8478 30.5839C29.438 30.6835 29.0112 30.6915 28.5979 30.6075L25.1781 29.4583C23.8846 29.0867 22.5137 29.0786 21.2159 29.435L12.7809 31.9258C11.9705 32.1494 11.1128 32.1347 10.3105 31.8835L6.09007 30.571C5.17664 30.3069 4.37355 29.7536 3.80136 28.9942C3.22917 28.2347 2.91876 27.3102 2.91674 26.3594V20.4167C2.91346 19.8272 3.0308 19.2433 3.26152 18.7008C3.49225 18.1583 3.8315 17.6688 4.2584 17.2623C4.92669 16.6254 5.77801 16.2143 6.69236 16.0869C7.28022 17.544 8.15562 18.8678 9.26631 19.9792L14.4682 25.0148C15.2812 25.8109 16.3738 26.2568 17.5117 26.2568C18.6496 26.2568 19.7422 25.8109 20.5552 25.0148L25.7513 19.9646C26.9146 18.7965 27.816 17.3941 28.3952 15.8506L29.1783 16.1102C30.0276 16.4145 30.7623 16.9735 31.2822 17.7108C31.8021 18.4481 32.0819 19.3278 32.0833 20.23V27.739Z" fill="#7C3EFF"/>
</svg>
