<svg width="33" height="33" viewBox="0 0 33 33" fill="none" xmlns="http://www.w3.org/2000/svg">
<path d="M28.0574 4.79531C24.971 1.70156 20.8607 0 16.4926 0C7.47656 0 0.139955 7.33661 0.139955 16.3527C0.139955 19.2328 0.891295 22.0467 2.32031 24.529L0 33L8.66987 30.7239C11.0565 32.0277 13.7451 32.7127 16.4853 32.7127H16.4926C25.5013 32.7127 33 25.3761 33 16.36C33 11.992 31.1438 7.88906 28.0574 4.79531ZM16.4926 29.9578C14.0471 29.9578 11.6531 29.3022 9.56853 28.0647L9.075 27.7701L3.93348 29.1181L5.30357 24.1018L4.97946 23.5862C3.61674 21.4205 2.90223 18.9234 2.90223 16.3527C2.90223 8.86138 9.00134 2.76228 16.5 2.76228C20.1315 2.76228 23.542 4.17656 26.1054 6.74732C28.6688 9.31808 30.2451 12.7286 30.2377 16.36C30.2377 23.8587 23.9839 29.9578 16.4926 29.9578ZM23.9471 19.7779C23.542 19.5717 21.531 18.5846 21.1554 18.452C20.7797 18.3121 20.5071 18.2458 20.2346 18.6583C19.9621 19.0708 19.1813 19.9842 18.9382 20.2641C18.7025 20.5366 18.4594 20.5734 18.0542 20.3672C15.6529 19.1665 14.0766 18.2237 12.4929 15.5056C12.073 14.7837 12.9127 14.8353 13.6935 13.2737C13.8261 13.0011 13.7598 12.7654 13.6567 12.5592C13.5536 12.3529 12.7359 10.342 12.3971 9.52433C12.0656 8.7288 11.7268 8.83929 11.4763 8.82455C11.2406 8.80982 10.9681 8.80982 10.6955 8.80982C10.423 8.80982 9.98103 8.91295 9.60536 9.31808C9.22969 9.73058 8.17634 10.7176 8.17634 12.7286C8.17634 14.7395 9.64219 16.6842 9.84107 16.9567C10.0473 17.2292 12.7212 21.3542 16.8241 23.1295C19.417 24.2491 20.4335 24.3449 21.7299 24.1533C22.5181 24.0355 24.146 23.1663 24.4848 22.2087C24.8237 21.2511 24.8237 20.4335 24.7205 20.2641C24.6248 20.0799 24.3522 19.9768 23.9471 19.7779Z" fill="#7C3EFF"/>
</svg>
