<svg width="403" height="91" viewBox="0 0 403 91" fill="none" xmlns="http://www.w3.org/2000/svg">
<g clip-path="url(#clip0_162_2529)">
<path d="M74.091 51.6416C70.1761 51.6416 67.0062 48.4947 67.0062 44.6082C67.0062 40.7216 70.1761 37.5747 74.091 37.5747C78.0059 37.5747 81.1758 40.7216 81.1758 44.6082C81.1758 48.4947 78.0059 51.6416 74.091 51.6416Z" fill="#7C3EFF"/>
<path d="M95.9151 51.6416C92.0002 51.6416 88.8303 48.4947 88.8303 44.6082C88.8303 40.7216 92.0002 37.5747 95.9151 37.5747C99.83 37.5747 103 40.7216 103 44.6082C103 48.4947 99.83 51.6416 95.9151 51.6416Z" fill="#7C3EFF"/>
<path d="M75.7126 28.192C71.8999 29.0766 68.0873 26.7273 67.1962 22.9567C66.3051 19.1862 68.6716 15.3867 72.4696 14.5021C76.2823 13.6175 80.0949 15.9668 80.986 19.7373C81.8771 23.5078 79.5106 27.3073 75.7126 28.192Z" fill="#7C3EFF"/>
<path d="M74.091 75.7874C70.1761 75.7874 67.0062 72.6405 67.0062 68.7539C67.0062 64.8674 70.1761 61.7205 74.091 61.7205C78.0059 61.7205 81.1758 64.8674 81.1758 68.7539C81.1758 72.6405 78.0059 75.7874 74.091 75.7874Z" fill="#7C3EFF"/>
<path d="M52.6613 91C48.7464 91 45.5765 87.8531 45.5765 83.9666C45.5765 80.08 48.7464 76.9331 52.6613 76.9331C56.5763 76.9331 59.7462 80.08 59.7462 83.9666C59.7462 87.8531 56.5763 91 52.6613 91Z" fill="#7C3EFF"/>
<path d="M51.7556 14.0669C47.8407 14.0669 44.6708 10.92 44.6708 7.03347C44.6708 3.14693 47.8407 0 51.7556 0C55.6705 0 58.8404 3.14693 58.8404 7.03347C58.8404 10.92 55.6705 14.0669 51.7556 14.0669Z" fill="#7C3EFF"/>
<path d="M51.7556 51.6416C47.8407 51.6416 44.6708 48.4947 44.6708 44.6082C44.6708 40.7216 47.8407 37.5747 51.7556 37.5747C55.6705 37.5747 58.8404 40.7216 58.8404 44.6082C58.8404 48.4947 55.6705 51.6416 51.7556 51.6416Z" fill="#7C3EFF"/>
<path d="M29.4203 51.6416C25.5054 51.6416 22.3354 48.4947 22.3354 44.6082C22.3354 40.7216 25.5054 37.5747 29.4203 37.5747C33.3352 37.5747 36.5051 40.7216 36.5051 44.6082C36.5051 48.4947 33.3352 51.6416 29.4203 51.6416Z" fill="#7C3EFF"/>
<path d="M7.08481 51.6416C3.1699 51.6416 0 48.4947 0 44.6082C0 40.7216 3.1699 37.5747 7.08481 37.5747C10.9997 37.5747 14.1696 40.7216 14.1696 44.6082C14.1696 48.4947 10.9997 51.6416 7.08481 51.6416Z" fill="#7C3EFF"/>
</g>
<g opacity="0.5" clip-path="url(#clip1_162_2529)">
<path d="M224.372 51.6416C220.495 51.6416 217.356 48.4947 217.356 44.6082C217.356 40.7216 220.495 37.5747 224.372 37.5747C228.249 37.5747 231.388 40.7216 231.388 44.6082C231.388 48.4947 228.249 51.6416 224.372 51.6416Z" fill="#7C3EFF"/>
<path d="M245.984 51.6416C242.107 51.6416 238.968 48.4947 238.968 44.6082C238.968 40.7216 242.107 37.5747 245.984 37.5747C249.861 37.5747 253 40.7216 253 44.6082C253 48.4947 249.861 51.6416 245.984 51.6416Z" fill="#7C3EFF"/>
<path d="M225.977 28.192C222.202 29.0766 218.426 26.7273 217.544 22.9567C216.661 19.1862 219.005 15.3867 222.766 14.5021C226.542 13.6175 230.317 15.9668 231.2 19.7373C232.082 23.5078 229.739 27.3073 225.977 28.192Z" fill="#7C3EFF"/>
<path d="M224.372 75.7874C220.495 75.7874 217.356 72.6405 217.356 68.7539C217.356 64.8674 220.495 61.7205 224.372 61.7205C228.249 61.7205 231.388 64.8674 231.388 68.7539C231.388 72.6405 228.249 75.7874 224.372 75.7874Z" fill="#7C3EFF"/>
<path d="M203.15 91C199.273 91 196.134 87.8531 196.134 83.9666C196.134 80.08 199.273 76.9331 203.15 76.9331C207.027 76.9331 210.166 80.08 210.166 83.9666C210.166 87.8531 207.027 91 203.15 91Z" fill="#7C3EFF"/>
<path d="M202.253 14.0669C198.376 14.0669 195.237 10.92 195.237 7.03347C195.237 3.14693 198.376 0 202.253 0C206.13 0 209.269 3.14693 209.269 7.03347C209.269 10.92 206.13 14.0669 202.253 14.0669Z" fill="#7C3EFF"/>
<path d="M202.253 51.6416C198.376 51.6416 195.237 48.4947 195.237 44.6082C195.237 40.7216 198.376 37.5747 202.253 37.5747C206.13 37.5747 209.269 40.7216 209.269 44.6082C209.269 48.4947 206.13 51.6416 202.253 51.6416Z" fill="#7C3EFF"/>
<path d="M180.135 51.6416C176.258 51.6416 173.119 48.4947 173.119 44.6082C173.119 40.7216 176.258 37.5747 180.135 37.5747C184.011 37.5747 187.151 40.7216 187.151 44.6082C187.151 48.4947 184.011 51.6416 180.135 51.6416Z" fill="#7C3EFF"/>
<path d="M158.016 51.6416C154.139 51.6416 151 48.4947 151 44.6082C151 40.7216 154.139 37.5747 158.016 37.5747C161.893 37.5747 165.032 40.7216 165.032 44.6082C165.032 48.4947 161.893 51.6416 158.016 51.6416Z" fill="#7C3EFF"/>
</g>
<g opacity="0.15" clip-path="url(#clip2_162_2529)">
<path d="M374.372 51.6416C370.495 51.6416 367.356 48.4947 367.356 44.6082C367.356 40.7216 370.495 37.5747 374.372 37.5747C378.249 37.5747 381.388 40.7216 381.388 44.6082C381.388 48.4947 378.249 51.6416 374.372 51.6416Z" fill="#7C3EFF"/>
<path d="M395.984 51.6416C392.107 51.6416 388.968 48.4947 388.968 44.6082C388.968 40.7216 392.107 37.5747 395.984 37.5747C399.861 37.5747 403 40.7216 403 44.6082C403 48.4947 399.861 51.6416 395.984 51.6416Z" fill="#7C3EFF"/>
<path d="M375.978 28.192C372.202 29.0766 368.426 26.7273 367.544 22.9567C366.661 19.1862 369.005 15.3867 372.766 14.5021C376.542 13.6175 380.317 15.9668 381.2 19.7373C382.082 23.5078 379.739 27.3073 375.978 28.192Z" fill="#7C3EFF"/>
<path d="M374.372 75.7874C370.495 75.7874 367.356 72.6405 367.356 68.7539C367.356 64.8674 370.495 61.7205 374.372 61.7205C378.249 61.7205 381.388 64.8674 381.388 68.7539C381.388 72.6405 378.249 75.7874 374.372 75.7874Z" fill="#7C3EFF"/>
<path d="M353.15 91C349.273 91 346.134 87.8531 346.134 83.9666C346.134 80.08 349.273 76.9331 353.15 76.9331C357.027 76.9331 360.166 80.08 360.166 83.9666C360.166 87.8531 357.027 91 353.15 91Z" fill="#7C3EFF"/>
<path d="M352.253 14.0669C348.376 14.0669 345.237 10.92 345.237 7.03347C345.237 3.14693 348.376 0 352.253 0C356.13 0 359.269 3.14693 359.269 7.03347C359.269 10.92 356.13 14.0669 352.253 14.0669Z" fill="#7C3EFF"/>
<path d="M352.253 51.6416C348.376 51.6416 345.237 48.4947 345.237 44.6082C345.237 40.7216 348.376 37.5747 352.253 37.5747C356.13 37.5747 359.269 40.7216 359.269 44.6082C359.269 48.4947 356.13 51.6416 352.253 51.6416Z" fill="#7C3EFF"/>
<path d="M330.135 51.6416C326.258 51.6416 323.119 48.4947 323.119 44.6082C323.119 40.7216 326.258 37.5747 330.135 37.5747C334.012 37.5747 337.151 40.7216 337.151 44.6082C337.151 48.4947 334.012 51.6416 330.135 51.6416Z" fill="#7C3EFF"/>
<path d="M308.016 51.6416C304.139 51.6416 301 48.4947 301 44.6082C301 40.7216 304.139 37.5747 308.016 37.5747C311.893 37.5747 315.032 40.7216 315.032 44.6082C315.032 48.4947 311.893 51.6416 308.016 51.6416Z" fill="#7C3EFF"/>
</g>
<defs>
<clipPath id="clip0_162_2529">
<rect width="103" height="91" fill="white"/>
</clipPath>
<clipPath id="clip1_162_2529">
<rect width="102" height="91" fill="white" transform="translate(151)"/>
</clipPath>
<clipPath id="clip2_162_2529">
<rect width="102" height="91" fill="white" transform="translate(301)"/>
</clipPath>
</defs>
</svg>
